<svg xmlns="http://www.w3.org/2000/svg" width="140" height="20" viewBox="0 0 140 20" fill="none">
<path d="M5.12319 9.96096C4.07873 9.96096 3.11272 9.96096 2.22514 9.9488C1.33756 9.9407 0.627498 9.93259 0.0990786 9.91638C-0.0330262 9.03695 -0.0330262 8.15752 0.0990786 7.27809C0.379801 7.26188 0.866933 7.25377 1.56461 7.24566C2.26229 7.23756 3.06731 7.23351 3.97965 7.23351H6.87771C7.89739 7.23351 8.87166 7.23351 9.79639 7.24566C10.7211 7.25377 11.5427 7.26187 12.2527 7.26593C12.9669 7.27403 13.4747 7.27809 13.7843 7.27809C13.8421 7.78467 13.871 8.24668 13.871 8.6641C13.871 9.08153 13.8421 9.49896 13.7843 9.92043C13.4623 9.93665 12.8431 9.94475 11.9307 9.95286C11.0184 9.96096 9.98216 9.96502 8.82212 9.96502V10.4189C8.82212 10.5648 8.81387 10.7067 8.80148 10.8526C8.58268 10.8688 8.29783 10.8769 7.95105 10.885C7.60428 10.8931 7.25751 10.8971 6.90247 10.8971C6.54744 10.8971 6.21718 10.8971 5.8993 10.885C5.58142 10.8769 5.33786 10.8688 5.16034 10.8526L5.11493 9.96502L5.12319 9.96096ZM6.51029 6.88903C4.52459 6.88903 3.08382 6.60939 2.17973 6.04607C1.27563 5.48274 0.825653 4.61952 0.825653 3.4483C0.825653 2.27707 1.27563 1.43411 2.17973 0.862685C3.08382 0.291257 4.52872 0.00756836 6.51029 0.00756836C8.49186 0.00756836 9.91612 0.291257 10.8202 0.862685C11.7243 1.43411 12.1743 2.29328 12.1743 3.4483C12.1743 4.60331 11.7243 5.48274 10.8202 6.04607C9.91612 6.60939 8.47948 6.88903 6.51029 6.88903ZM18.8332 17.3206C18.8786 17.7097 18.8951 18.119 18.8869 18.5445C18.8786 18.9701 18.8621 19.3713 18.8332 19.7441C18.6144 19.7725 18.1149 19.7928 17.3346 19.809C16.5544 19.8252 15.6173 19.8333 14.5233 19.8414C13.4293 19.8495 12.2445 19.8536 10.973 19.8536C9.70144 19.8536 8.47948 19.8536 7.30292 19.8414C6.12636 19.8333 5.05713 19.8252 4.09525 19.809C3.13336 19.7928 2.41504 19.7725 1.94442 19.7441C1.89901 19.1079 1.87011 18.3298 1.85772 17.4057C1.84121 16.4817 1.87424 15.4929 1.94442 14.4392H14.7503V13.8313H1.9857C1.94029 13.426 1.91964 12.9883 1.91964 12.5101C1.91964 12.0319 1.94029 11.659 1.9857 11.3835C3.71957 11.3672 5.43281 11.3551 7.12127 11.3389C8.80974 11.3227 10.3826 11.3186 11.8399 11.3186C13.2972 11.3186 14.5935 11.3186 15.7411 11.3308C16.8888 11.3389 17.7929 11.351 18.4534 11.3632C18.4823 11.5658 18.5029 11.9144 18.5194 12.4128C18.5318 12.9113 18.5401 13.4382 18.5401 13.9934C18.5401 14.5486 18.5318 15.0836 18.5194 15.5942C18.5029 16.1048 18.4823 16.4777 18.4534 16.7087H5.64747V17.3166H18.8291L18.8332 17.3206ZM6.51029 2.82013C6.01077 2.82013 5.61445 2.83634 5.32134 2.86471C5.02824 2.89308 4.80531 2.93766 4.64843 2.9944C4.49569 3.05113 4.39661 3.11598 4.3512 3.18893C4.30579 3.26187 4.28515 3.34698 4.28515 3.4483C4.28515 3.54961 4.30579 3.63877 4.3512 3.71983C4.39661 3.80088 4.49569 3.86572 4.64843 3.91436C4.80118 3.96704 5.02824 4.00352 5.32134 4.03188C5.61445 4.06025 6.01077 4.07646 6.51029 4.07646C7.00981 4.07646 7.38136 4.06431 7.66621 4.03188C7.95106 4.00352 8.17398 3.96299 8.32673 3.91436C8.47947 3.86572 8.58268 3.80088 8.63635 3.71983C8.68589 3.63877 8.71479 3.54961 8.71479 3.4483C8.71479 3.34698 8.69002 3.26187 8.63635 3.18893C8.58681 3.11598 8.4836 3.05113 8.32673 2.9944C8.17398 2.93766 7.95106 2.89308 7.66621 2.86471C7.38136 2.83634 6.9933 2.82013 6.51029 2.82013ZM14.7999 5.61243C14.387 5.61243 14.0031 5.61243 13.6439 5.60027C13.2848 5.59217 12.9793 5.58406 12.7275 5.56785C12.711 5.33685 12.7027 5.07748 12.6944 4.78974C12.6862 4.502 12.6821 4.2102 12.6821 3.91436C12.6821 3.61851 12.6821 3.32672 12.6944 3.03898C12.7027 2.75124 12.711 2.49186 12.7275 2.26086C12.9628 2.2487 13.26 2.2406 13.6192 2.2406H14.7999C14.7999 1.82317 14.7999 1.43006 14.8123 1.06127C14.8205 0.692472 14.8246 0.37231 14.8246 0.0967279C14.9856 0.0683591 15.2251 0.0480942 15.543 0.0318835C15.8608 0.0156727 16.1994 0.0116204 16.5668 0.0116204C16.9342 0.0116204 17.2892 0.0197254 17.636 0.0318835C17.9828 0.0480942 18.2552 0.0683591 18.4616 0.0967279C18.4782 0.789737 18.4905 1.61243 18.5071 2.56481C18.5236 3.51719 18.5277 4.48984 18.5277 5.4868C18.5277 6.48376 18.5194 7.45235 18.5071 8.39662C18.4905 9.3409 18.4782 10.1474 18.4616 10.808C18.2717 10.8363 18.0117 10.8526 17.6897 10.8526H16.6741C16.3232 10.8526 15.9764 10.8444 15.6379 10.8323C15.2994 10.8161 15.0269 10.812 14.8205 10.812C14.804 10.192 14.7999 9.42195 14.7999 8.49794V5.62054V5.61243Z" fill="black"/>
<path d="M38.8512 7.12403C38.8966 7.54146 38.9173 8.04805 38.9173 8.63974C38.9173 9.23143 38.8966 9.75828 38.8512 10.2203C38.6613 10.2365 38.2733 10.2487 37.6953 10.2649C37.1132 10.2811 36.4031 10.2892 35.5569 10.2973C34.7106 10.3054 33.7734 10.3094 32.7455 10.3094H29.5915C28.5181 10.3094 27.4572 10.3094 26.4045 10.2973C25.3518 10.2892 24.3857 10.2851 23.5064 10.277C22.623 10.2689 21.8551 10.2608 21.2028 10.2568C20.5506 10.2487 20.0841 10.2405 19.8034 10.2243C19.7745 10.0217 19.7538 9.78665 19.7497 9.51917C19.7414 9.2517 19.7373 8.98017 19.7373 8.69648C19.7373 8.41279 19.7373 8.13721 19.7497 7.86162C19.7579 7.58604 19.7745 7.34288 19.8034 7.12403C20.5547 7.10782 21.5083 7.09972 22.6684 7.09161C23.8284 7.08351 25.0669 7.07945 26.3838 7.07945H30.3965C31.7547 7.07945 33.0138 7.07945 34.1656 7.09161C35.3174 7.09972 36.3165 7.10782 37.1628 7.11188C38.009 7.11998 38.5705 7.12403 38.8471 7.12403H38.8512ZM34.1326 11.4523C34.3968 11.4361 34.6817 11.432 34.9913 11.432H36.8779C37.1793 11.432 37.4393 11.4401 37.6623 11.4523C37.6788 12.044 37.6912 12.6884 37.7077 13.3895C37.7242 14.0906 37.7283 14.8079 37.7283 15.5415C37.7283 16.275 37.7201 17.0045 37.7077 17.7259C37.6912 18.4472 37.6788 19.12 37.6623 19.74C37.5013 19.7563 37.1628 19.7684 36.6467 19.7846C36.1307 19.8008 35.4991 19.8089 34.7518 19.817C34.0005 19.8251 33.1666 19.8333 32.2501 19.8373C31.3295 19.8454 30.3965 19.8495 29.4388 19.8495C28.481 19.8495 27.5439 19.8495 26.6191 19.8373C25.6944 19.8292 24.844 19.8211 24.072 19.817C23.3 19.8089 22.6436 19.8008 22.0987 19.7846C21.5537 19.7684 21.1863 19.7563 20.9964 19.74C20.9799 19.351 20.9675 18.9092 20.951 18.4189C20.9345 17.9285 20.9262 17.4179 20.918 16.8829C20.9097 16.3479 20.9056 15.813 20.9056 15.2699C20.9056 14.7269 20.9056 14.2162 20.918 13.734C20.9262 13.2517 20.9345 12.81 20.951 12.4128C20.9634 12.0156 20.9799 11.6955 20.9964 11.4482C21.2152 11.432 21.4877 11.4239 21.8138 11.4158C22.1358 11.4077 22.4661 11.4037 22.7964 11.4037C23.1266 11.4037 23.4486 11.4037 23.7541 11.4158C24.0637 11.4239 24.3197 11.432 24.5261 11.4482V12.8545C25.2031 12.8545 25.9545 12.8545 26.7843 12.8424C27.614 12.8343 28.4645 12.8302 29.3314 12.8302C30.1983 12.8302 31.0529 12.8302 31.8868 12.8424C32.7249 12.8505 33.4721 12.8545 34.1367 12.8545V11.4482L34.1326 11.4523ZM33.5381 3.35909C32.1841 3.35909 30.8589 3.35909 29.5585 3.37125C28.2581 3.37935 27.0567 3.38746 25.9545 3.39151C24.8522 3.39962 23.8862 3.39962 23.0564 3.39151C22.2267 3.38341 21.6115 3.3753 21.2152 3.35909C21.1698 2.89709 21.1492 2.37834 21.1492 1.80286C21.1492 1.22738 21.1698 0.704584 21.2152 0.24663C21.434 0.234472 21.8056 0.218261 22.3299 0.20205C22.85 0.18584 23.4693 0.177734 24.1835 0.169628C24.8977 0.161523 25.682 0.157471 26.5407 0.157471H29.1622C30.0497 0.157471 30.9249 0.15747 31.7836 0.169628C32.6423 0.177734 33.4349 0.18584 34.1656 0.189893C34.8922 0.197998 35.5238 0.206103 36.0605 0.210156C36.5972 0.218261 36.9811 0.230419 37.2164 0.242577C37.2453 0.704583 37.266 1.23143 37.2825 1.82312C37.299 2.41482 37.3031 2.9984 37.3031 3.57794C37.3031 4.15747 37.2949 4.68432 37.2825 5.16659C37.266 5.64886 37.2453 6.0136 37.2164 6.26081C37.0389 6.27702 36.783 6.28513 36.4444 6.29323C36.1059 6.30134 35.7509 6.30539 35.3752 6.30539C34.9995 6.30539 34.6445 6.30539 34.306 6.29323C33.9675 6.28513 33.7115 6.27702 33.534 6.26081C33.534 5.98523 33.534 5.73396 33.5216 5.50296C33.5134 5.27196 33.5092 5.04501 33.5092 4.82211C33.5092 4.59921 33.5092 4.37226 33.5216 4.14126C33.5299 3.91026 33.534 3.65088 33.534 3.36314L33.5381 3.35909ZM24.522 16.8424C24.844 16.8545 25.2733 16.8626 25.81 16.8626C26.3467 16.8626 26.9288 16.8626 27.5604 16.8748C28.192 16.8829 28.8443 16.8829 29.5131 16.8748C30.1818 16.8667 30.8176 16.8626 31.4203 16.8626H33.0386C33.5175 16.8626 33.8808 16.8545 34.1285 16.8424V15.7157H24.5178V16.8424H24.522Z" fill="black"/>
<path d="M44.6434 8.03242C44.3503 8.32016 44.0448 8.61195 43.7269 8.9078C43.4091 9.20365 43.1077 9.47923 42.8228 9.74265C42.538 10.002 42.2738 10.2371 42.0385 10.4478C41.8032 10.6586 41.6133 10.8207 41.4646 10.9341C41.3036 10.8328 41.1179 10.691 40.9156 10.5127C40.7092 10.3343 40.5027 10.1358 40.2963 9.91692C40.0899 9.70213 39.8876 9.47923 39.6895 9.25633C39.4913 9.03343 39.3262 8.83485 39.1941 8.66059C39.3262 8.50253 39.5244 8.28369 39.7886 8.01216C40.0528 7.73658 40.3459 7.44478 40.672 7.13678C40.994 6.82472 41.3325 6.50051 41.6876 6.16413C42.0385 5.82371 42.3729 5.51165 42.6784 5.22391V3.57852C42.0591 3.57852 41.4935 3.57852 40.9816 3.56636C40.4656 3.55826 40.0652 3.55015 39.7679 3.53394C39.7225 3.04357 39.7019 2.51266 39.7019 1.94529C39.7019 1.37791 39.7225 0.87538 39.7679 0.441743C40.7215 0.413374 42.0343 0.393111 43.7022 0.3769C45.37 0.364742 47.3144 0.385005 49.5313 0.441743C49.5478 0.672746 49.5561 0.91996 49.5643 1.18744C49.5726 1.45491 49.5767 1.72644 49.5767 2.01013C49.5767 2.29382 49.5767 2.5613 49.5643 2.82067C49.5561 3.08004 49.5478 3.31915 49.5313 3.53394L46.6209 3.57852V5.30902C46.9429 5.55623 47.2772 5.8156 47.624 6.08713C47.9708 6.36272 48.3011 6.62614 48.6148 6.87741C48.9286 7.12867 49.2175 7.36373 49.4735 7.58257C49.7294 7.79737 49.9317 7.97163 50.0803 8.10132C49.9771 8.27558 49.8368 8.47822 49.6593 8.71732C49.4817 8.95643 49.296 9.19149 49.0978 9.42249C48.8997 9.65349 48.7056 9.87234 48.5157 10.0831C48.3258 10.2938 48.1566 10.4559 48.0079 10.5694C47.8469 10.4681 47.6405 10.3262 47.3887 10.1479C47.1369 9.9696 46.8603 9.76292 46.5507 9.53191C46.241 9.30091 45.9232 9.05775 45.5929 8.79433C45.2627 8.53495 44.9406 8.28369 44.6352 8.03647L44.6434 8.03242ZM49.4941 11.3637C51.228 11.3637 52.6523 11.4529 53.771 11.6353C54.8898 11.8176 55.7691 12.0851 56.4173 12.4458C57.0654 12.8065 57.5071 13.2563 57.7507 13.7994C57.9942 14.3425 58.114 14.9706 58.114 15.692C58.114 16.4985 57.9736 17.1793 57.697 17.7264C57.4163 18.2736 56.9457 18.7153 56.2728 19.0476C55.604 19.3799 54.7205 19.6231 53.6183 19.773C52.516 19.923 51.1413 20 49.4983 20C47.7479 20 46.3195 19.9108 45.209 19.7285C44.0985 19.5461 43.2233 19.2827 42.5751 18.926C41.927 18.5735 41.4853 18.1236 41.2417 17.5846C40.9981 17.0456 40.8784 16.4134 40.8784 15.692C40.8784 14.8977 41.0188 14.2249 41.2954 13.6697C41.5761 13.1145 42.0467 12.6687 42.7155 12.3283C43.3843 11.9878 44.2677 11.7447 45.37 11.5907C46.4722 11.4407 47.8469 11.3637 49.4941 11.3637ZM49.4941 17.0334C50.6129 17.0334 51.4922 17.0091 52.1404 16.9564C52.7885 16.9078 53.2798 16.8267 53.6183 16.7173C53.9568 16.6079 54.1715 16.4701 54.2705 16.308C54.3655 16.1418 54.415 15.9352 54.415 15.692C54.415 15.4772 54.3655 15.2827 54.2705 15.1084C54.1756 14.9341 53.9568 14.7923 53.6183 14.6748C53.2798 14.5613 52.7844 14.4721 52.1321 14.4154C51.4757 14.3587 50.6005 14.3303 49.4983 14.3303C48.396 14.3303 47.5002 14.3546 46.852 14.4073C46.2039 14.4559 45.7126 14.541 45.3741 14.6545C45.0356 14.772 44.8209 14.9139 44.7218 15.0881C44.6228 15.2624 44.5774 15.465 44.5774 15.696C44.5774 15.9108 44.6269 16.1054 44.7218 16.2715C44.8168 16.4377 45.0356 16.5795 45.3741 16.693C45.7126 16.8065 46.208 16.8956 46.8603 16.9524C47.5126 17.0091 48.3919 17.0375 49.4941 17.0375V17.0334ZM53.771 10.5856C53.61 10.6018 53.3788 10.6099 53.0775 10.618C52.7761 10.6261 52.4582 10.6302 52.1197 10.6302C51.7812 10.6302 51.4509 10.6302 51.1289 10.618C50.8069 10.6099 50.5427 10.6018 50.3363 10.5856C50.3198 10.2411 50.3115 9.77507 50.3033 9.19149C50.295 8.6079 50.2868 7.96758 50.2826 7.27457C50.2744 6.58156 50.2702 5.86829 50.2702 5.1307C50.2702 4.39311 50.2702 3.70415 50.2826 3.05167C50.2909 2.40324 50.2991 1.82371 50.3033 1.30902C50.3115 0.798379 50.3198 0.425532 50.3363 0.194529C50.4973 0.16616 50.7326 0.145896 51.0422 0.141843C51.3519 0.133738 51.678 0.129686 52.0248 0.129686C52.3715 0.129686 52.7059 0.137791 53.0279 0.149949C53.3499 0.16616 53.6018 0.178318 53.7751 0.194529C53.7917 0.526849 53.7958 0.968591 53.7958 1.52381C53.7958 2.07903 53.804 2.69503 53.8164 3.37589H54.5224V0.085106C54.6834 0.0567372 54.9228 0.0364739 55.2366 0.0202631C55.5544 0.00405238 55.8847 0 56.2273 0C56.57 0 56.9085 0.00810506 57.2305 0.0202631C57.5525 0.0364739 57.8044 0.0567372 57.9777 0.085106C57.9777 0.401215 57.9777 0.842959 57.9901 1.40628C57.9984 1.96961 58.0025 2.59777 58.0025 3.29078V7.65147C58.0025 8.35258 58.0025 8.98885 57.9901 9.56839C57.9819 10.1439 57.9777 10.6059 57.9777 10.9544C57.8167 10.9828 57.5855 10.999 57.2842 10.999H56.3264C55.9879 10.999 55.6535 10.999 55.3232 10.9868C54.993 10.9787 54.7247 10.9706 54.5182 10.9544C54.5017 10.537 54.4976 9.92908 54.4976 9.13475V6.5613H53.7917C53.7917 7.39615 53.7917 8.17426 53.7793 8.88754C53.7669 9.60081 53.7669 10.1682 53.7669 10.5856H53.771Z" fill="black"/>
<path d="M65.7394 18.7437C64.6083 18.7437 63.6464 18.5978 62.8496 18.31C62.057 18.0223 61.4047 17.5198 60.8969 16.8065C60.3892 16.0932 60.0176 15.1408 59.7823 13.9493C59.547 12.7579 59.4314 11.2624 59.4314 9.45897C59.4314 7.65552 59.547 6.16008 59.7823 4.96859C60.0176 3.7771 60.3892 2.82472 60.8969 2.11145C61.4047 1.39818 62.0529 0.895643 62.8496 0.607903C63.6422 0.320162 64.6041 0.174266 65.7394 0.174266C66.8747 0.174266 67.8159 0.320162 68.6168 0.607903C69.4177 0.895643 70.07 1.39818 70.5695 2.11145C71.069 2.82472 71.4364 3.7771 71.6717 4.96859C71.9071 6.16008 72.0226 7.65552 72.0226 9.45897C72.0226 11.2624 71.9029 12.7579 71.6717 13.9493C71.4364 15.1408 71.069 16.0932 70.5695 16.8065C70.07 17.5198 69.4177 18.0223 68.6168 18.31C67.8159 18.5978 66.8582 18.7437 65.7394 18.7437ZM65.7394 15.388C66.2554 15.388 66.6765 15.307 67.0068 15.1408C67.3371 14.9747 67.5971 14.6748 67.7912 14.2411C67.9811 13.8075 68.1132 13.2077 68.1875 12.4336C68.2618 11.6636 68.2989 10.6707 68.2989 9.45897C68.2989 8.24721 68.2618 7.25431 68.1875 6.4843C68.1132 5.71429 67.9811 5.11044 67.7912 4.6768C67.6013 4.24316 67.3412 3.94326 67.0068 3.7771C66.6765 3.61094 66.2554 3.52989 65.7394 3.52989C65.2234 3.52989 64.7982 3.61499 64.4596 3.7771C64.1211 3.94326 63.8569 4.24316 63.667 4.6768C63.4771 5.11044 63.345 5.71023 63.2707 6.4843C63.1964 7.25431 63.1592 8.24721 63.1592 9.45897C63.1592 10.6707 63.1964 11.6636 63.2707 12.4336C63.345 13.2036 63.4771 13.8075 63.667 14.2411C63.8569 14.6748 64.1211 14.9747 64.4596 15.1408C64.7982 15.307 65.2234 15.388 65.7394 15.388ZM74.0496 19.6515C74.0331 19.234 74.0249 18.5208 74.0166 17.5076C74.0083 16.4985 74.0001 15.3354 73.996 14.0223C73.9877 12.7092 73.9836 11.3232 73.9836 9.86829C73.9836 8.41337 73.9836 7.02735 73.996 5.71428C74.0042 4.40122 74.0125 3.24215 74.0166 2.22898C74.0249 1.21986 74.0331 0.506585 74.0496 0.085106C74.2106 0.0567372 74.4542 0.0364739 74.7762 0.0202631C75.0982 0.00405238 75.4409 0 75.8 0C76.1592 0 76.5183 0.00810506 76.8692 0.0202631C77.2201 0.0364739 77.5009 0.0567372 77.7073 0.085106C77.7238 0.462006 77.7321 0.992908 77.7403 1.68592C77.7486 2.37893 77.7568 3.1692 77.7609 4.05674C77.7692 4.94427 77.7733 5.90071 77.7733 6.92198V13.1104C77.7733 14.1196 77.7733 15.0598 77.7609 15.923C77.7527 16.7903 77.7444 17.5441 77.7403 18.1966C77.7321 18.845 77.7238 19.3273 77.7073 19.6474C77.5174 19.6758 77.2573 19.696 76.9353 19.7001C76.6133 19.7082 76.2706 19.7123 75.9115 19.7123C75.5523 19.7123 75.2014 19.7042 74.8629 19.692C74.5244 19.6758 74.2519 19.6636 74.0455 19.6474L74.0496 19.6515Z" fill="black"/>
<path d="M99.9931 12.5552C100.039 12.9889 100.059 13.4914 100.059 14.0588C100.059 14.6261 100.039 15.1651 99.9931 15.6717C99.7867 15.6879 99.444 15.7001 98.9693 15.7163C98.4904 15.7325 97.9166 15.7406 97.2395 15.7487C96.5625 15.7568 95.8111 15.7609 94.9814 15.7609H92.3929V17.9777C92.3929 18.3303 92.3929 18.6586 92.3806 18.9625C92.3723 19.2665 92.3682 19.5177 92.3682 19.7204C92.1618 19.7366 91.8975 19.7447 91.5755 19.7528C91.2535 19.7609 90.915 19.7649 90.56 19.7649C90.205 19.7649 89.854 19.7649 89.5031 19.7528C89.1522 19.7447 88.855 19.7366 88.6197 19.7204C88.6197 19.5461 88.6197 19.3151 88.6073 19.0274C88.5991 18.7396 88.5908 18.4154 88.5867 18.0547C88.5784 17.694 88.5743 17.3171 88.5743 16.92V15.7609C87.7073 15.7609 86.8734 15.7609 86.0725 15.7487C85.2717 15.7406 84.5368 15.7325 83.868 15.7285C83.1993 15.7204 82.6131 15.7123 82.1053 15.7082C81.5975 15.7001 81.2136 15.692 80.9494 15.6758C80.9205 15.461 80.8998 15.2219 80.8957 14.9625C80.8874 14.7031 80.8833 14.4316 80.8833 14.152C80.8833 13.8723 80.8833 13.5927 80.8957 13.3171C80.9039 13.0415 80.9205 12.7903 80.9494 12.5593C81.7585 12.5431 82.741 12.5309 83.9052 12.5147C85.0652 12.5025 86.2955 12.4944 87.5959 12.4944C88.8963 12.4944 90.2132 12.4944 91.5425 12.5066C92.8718 12.5147 94.1062 12.5187 95.2456 12.5187C96.385 12.5187 97.3758 12.5269 98.2221 12.539C99.0684 12.5552 99.6587 12.5593 99.9972 12.5593L99.9931 12.5552ZM98.8248 10.7801C98.5606 10.7964 98.0074 10.8085 97.1735 10.8247C96.3355 10.8409 95.3488 10.849 94.2094 10.8571C93.07 10.8653 91.8563 10.8734 90.5724 10.8774C89.2843 10.8855 88.0665 10.8855 86.9147 10.8774C85.7629 10.8693 84.7515 10.8612 83.8846 10.845C83.0176 10.8288 82.4355 10.8085 82.1424 10.7801C82.1259 10.1439 82.1135 9.38197 82.097 8.48633C82.0805 7.59068 82.0764 6.67478 82.0764 5.73861C82.0764 4.80244 82.0764 3.88248 82.0888 2.97873C82.097 2.07903 82.1135 1.30092 82.1424 0.652489C82.3777 0.636279 82.6667 0.62412 83.0135 0.60791C83.3603 0.595752 83.707 0.587646 84.0621 0.587646C84.4171 0.587646 84.7556 0.595752 85.0859 0.60791C85.4161 0.62412 85.6845 0.636279 85.8909 0.652489C85.9074 0.838913 85.9115 1.09018 85.9115 1.39818V2.44783C86.4978 2.44783 87.1996 2.44783 88.017 2.43567C88.8344 2.42756 89.6683 2.42351 90.5187 2.42351C91.3691 2.42351 92.203 2.42351 93.008 2.43567C93.8172 2.44377 94.5066 2.44783 95.0805 2.44783V0.652489C95.3158 0.636279 95.6006 0.628173 95.9391 0.620067C96.2776 0.611962 96.6203 0.60791 96.9629 0.60791C97.3056 0.60791 97.6482 0.607909 97.9785 0.620067C98.3088 0.628173 98.5936 0.636279 98.8289 0.652489C98.8454 1.39008 98.8537 2.22088 98.862 3.15299C98.8702 4.08511 98.8743 5.01318 98.8743 5.94529C98.8743 6.87741 98.8743 7.76495 98.862 8.61601C98.8537 9.46707 98.8454 10.1885 98.8289 10.7801H98.8248ZM95.0763 5.78319C94.5025 5.78319 93.8172 5.78319 93.0163 5.79534C92.2154 5.80345 91.3856 5.8075 90.527 5.8075C89.6683 5.8075 88.8302 5.8075 88.0128 5.79534C87.1954 5.78724 86.4936 5.78319 85.9074 5.78319C85.9074 6.16009 85.9074 6.49241 85.895 6.78825C85.8868 7.0841 85.8827 7.33131 85.8827 7.53395C86.0437 7.53395 86.3657 7.53395 86.8404 7.5461C87.3193 7.55421 87.8725 7.55826 88.5041 7.55826C89.1357 7.55826 89.8086 7.55826 90.5228 7.57042C91.237 7.57852 91.9058 7.57852 92.5292 7.57042C93.1525 7.56231 93.6975 7.55826 94.1598 7.55826C94.6222 7.55826 94.9277 7.55016 95.0763 7.538V5.78724V5.78319Z" fill="black"/>
<path d="M108.615 3.92319C108.632 4.66078 108.64 5.47942 108.648 6.37912C108.657 7.28287 108.648 8.15825 108.636 9.00931C109.061 9.61721 109.503 10.2413 109.957 10.8817C110.411 11.522 110.857 12.1501 111.291 12.7661C111.724 13.3781 112.137 13.9657 112.525 14.521C112.913 15.0762 113.256 15.5787 113.549 16.0245C113.21 16.4703 112.806 16.8675 112.335 17.216C111.864 17.5605 111.348 17.8442 110.791 18.059C110.085 17.1349 109.404 16.1907 108.739 15.2221C108.079 14.2575 107.402 13.2444 106.712 12.1907C106.361 12.8391 106.01 13.4754 105.664 14.0954C105.317 14.7155 104.987 15.2991 104.673 15.8502C104.355 16.3974 104.062 16.8999 103.789 17.3538C103.517 17.8077 103.286 18.1927 103.096 18.5129C102.877 18.4561 102.621 18.3629 102.336 18.2332C102.051 18.1035 101.762 17.9536 101.478 17.7915C101.193 17.6253 100.924 17.4511 100.673 17.2727C100.421 17.0904 100.223 16.9283 100.078 16.7864C100.607 15.834 101.267 14.6831 102.064 13.3335C102.856 11.984 103.732 10.5007 104.685 8.88773V6.28996C104.685 5.41053 104.694 4.62431 104.706 3.9313H102.217C101.482 3.9313 100.953 3.91509 100.631 3.88672C100.586 3.39634 100.565 2.84923 100.565 2.24133C100.565 1.63343 100.586 1.11468 100.631 0.685098C100.941 0.67294 101.35 0.660783 101.866 0.652678C102.382 0.644572 102.96 0.640518 103.608 0.640518C104.256 0.640518 104.954 0.640519 105.701 0.628361C106.452 0.620256 107.22 0.616203 108.017 0.616203C108.814 0.616203 109.598 0.624308 110.386 0.636467C111.171 0.652677 111.935 0.664836 112.669 0.681046C112.686 0.912049 112.694 1.16737 112.702 1.45106C112.711 1.73069 112.715 2.01843 112.715 2.30617C112.715 2.59391 112.715 2.8776 112.702 3.14913C112.694 3.42471 112.686 3.66787 112.669 3.88672C112.244 3.90293 111.674 3.90698 110.96 3.90698C110.246 3.90698 109.466 3.91509 108.611 3.92725L108.615 3.92319ZM119.659 7.14913C119.675 7.38013 119.687 7.64356 119.704 7.9394C119.72 8.23525 119.725 8.54325 119.725 8.85936C119.725 9.17547 119.716 9.48348 119.704 9.77932C119.687 10.0752 119.675 10.3386 119.659 10.5696C119.349 10.6142 118.726 10.6344 117.784 10.6344V13.5564C117.784 14.5088 117.784 15.3842 117.772 16.1866C117.764 16.989 117.755 17.6902 117.751 18.2981C117.743 18.906 117.735 19.3599 117.718 19.6598C117.528 19.6881 117.268 19.7084 116.946 19.7125C116.624 19.7206 116.282 19.7246 115.922 19.7246C115.563 19.7246 115.212 19.7165 114.874 19.7043C114.535 19.6881 114.263 19.676 114.056 19.6598C114.04 19.2423 114.028 18.5291 114.011 17.5159C113.995 16.5068 113.99 15.3437 113.99 14.0306V9.87659C113.99 8.41762 113.99 7.03565 114.003 5.72258C114.011 4.40951 114.019 3.25045 114.023 2.23728C114.032 1.22816 114.04 0.514886 114.056 0.0934068C114.205 0.065038 114.44 0.0447746 114.762 0.0285639C115.084 0.0123532 115.431 0.00830078 115.799 0.00830078C116.166 0.00830078 116.521 0.0164058 116.868 0.0285639C117.215 0.0447746 117.495 0.065038 117.718 0.0934068C117.735 0.381147 117.743 0.766153 117.751 1.24032C117.76 1.71448 117.764 2.26159 117.764 2.87355C117.764 3.4855 117.764 4.15014 117.776 4.86342C117.784 5.57669 117.788 6.32238 117.788 7.10455C118.185 7.10455 118.54 7.10455 118.858 7.11671C119.171 7.12481 119.444 7.13292 119.663 7.14913H119.659Z" fill="black"/>
<path d="M120.891 10.3709C120.846 9.96561 120.825 9.52386 120.825 9.04159C120.825 8.55933 120.846 8.09327 120.891 7.64747C121.643 7.63126 122.596 7.62315 123.756 7.61505C124.916 7.60694 126.155 7.59884 127.472 7.59479C128.789 7.58668 130.126 7.58668 131.484 7.59479C132.843 7.60289 134.102 7.60694 135.254 7.60694C136.405 7.60694 137.404 7.61505 138.251 7.62721C139.097 7.64342 139.658 7.64747 139.935 7.64747C140.022 8.49853 140.022 9.40634 139.935 10.3749C139.745 10.3911 139.357 10.4033 138.779 10.4195C138.197 10.4357 137.487 10.4438 136.641 10.4519C135.794 10.46 134.857 10.4641 133.829 10.4641H130.675C129.602 10.4641 128.541 10.4641 127.488 10.4519C126.436 10.4438 125.47 10.4357 124.59 10.4317C123.707 10.4236 122.939 10.4195 122.287 10.4114C121.634 10.4033 121.168 10.3952 120.887 10.379L120.891 10.3709ZM122.08 19.7407C122.051 19.4367 122.027 19.0801 122.014 18.6708C121.998 18.2615 121.994 17.8157 121.994 17.3415C121.994 16.8673 122.002 16.3648 122.014 15.8379C122.027 15.3111 122.051 14.7883 122.08 14.2696H134.977V13.5968H122.126C122.097 13.4104 122.076 13.1996 122.072 12.9686C122.064 12.7376 122.06 12.5066 122.06 12.2756C122.06 12.0446 122.06 11.8298 122.072 11.6272C122.08 11.4246 122.097 11.2584 122.126 11.1287C123.847 11.1125 125.548 11.1044 127.241 11.0963C128.929 11.0882 130.514 11.0841 131.992 11.0841C133.47 11.0841 134.787 11.0841 135.947 11.0963C137.107 11.1044 138.019 11.1125 138.68 11.1287C138.709 11.3314 138.73 11.688 138.746 12.1986C138.763 12.7093 138.767 13.2564 138.767 13.8319C138.767 14.4074 138.758 14.9585 138.746 15.4773C138.73 15.996 138.709 16.3729 138.68 16.6039H125.783V17.2767H139.184C139.241 17.6657 139.266 18.0791 139.25 18.5087C139.233 18.9423 139.213 19.3516 139.184 19.7407C138.948 19.7569 138.428 19.7691 137.619 19.7853C136.81 19.8015 135.852 19.8096 134.742 19.8177C133.631 19.8258 132.438 19.8298 131.158 19.8298C129.879 19.8298 128.644 19.8298 127.455 19.8177C126.266 19.8096 125.189 19.8015 124.227 19.7974C123.265 19.7893 122.547 19.7731 122.076 19.7447L122.08 19.7407ZM122.299 6.93014C122.27 6.49651 122.249 5.98587 122.233 5.39418C122.216 4.80248 122.212 4.19863 122.212 3.57452C122.212 2.95041 122.221 2.35061 122.233 1.75486C122.249 1.16317 122.27 0.660639 122.299 0.239159C122.563 0.227001 122.964 0.214842 123.5 0.206737C124.037 0.198632 124.66 0.194579 125.375 0.186474C126.089 0.178369 126.861 0.174316 127.699 0.174316H130.254C131.121 0.174316 131.976 0.174316 132.81 0.186474C133.648 0.194579 134.428 0.198633 135.146 0.198633C135.865 0.198633 136.5 0.198633 137.053 0.210791C137.603 0.218896 138.019 0.231053 138.3 0.243211C138.346 0.705218 138.366 1.18749 138.366 1.69407C138.366 2.20066 138.346 2.68293 138.3 3.14493C138.048 3.16115 137.611 3.1652 136.987 3.1652C136.364 3.1652 135.642 3.1652 134.828 3.17736C134.011 3.18546 133.148 3.18546 132.24 3.17736C131.328 3.16925 130.456 3.1652 129.627 3.1652H127.422C126.782 3.1652 126.324 3.15709 126.043 3.14493V4.03247H138.519C138.548 4.49448 138.564 5.00107 138.564 5.54818C138.564 6.09529 138.548 6.5573 138.519 6.9342C138.3 6.95041 137.929 6.95851 137.404 6.96662C136.884 6.97472 136.261 6.97878 135.543 6.97878C134.824 6.97878 134.032 6.97878 133.173 6.99093C132.314 6.99904 131.439 7.00309 130.551 7.00309C129.664 7.00309 128.78 7.00309 127.905 6.99093C127.03 6.98283 126.221 6.97472 125.482 6.97067C124.739 6.96257 124.091 6.95851 123.529 6.95851C122.968 6.95851 122.559 6.95041 122.295 6.93825L122.299 6.93014Z" fill="black"/>
</svg>